<?xml version="1.0" standalone="no"?>
<!DOCTYPE svg PUBLIC "-//W3C//DTD SVG 20010904//EN"
 "http://www.w3.org/TR/2001/REC-SVG-20010904/DTD/svg10.dtd">
<svg version="1.0" xmlns="http://www.w3.org/2000/svg"
 width="512.000000pt" height="512.000000pt" viewBox="0 0 512.000000 512.000000"
 preserveAspectRatio="xMidYMid meet">

<g transform="translate(0.000000,512.000000) scale(0.100000,-0.100000)"
fill="#000000" stroke="none">
<path d="M2430 4834 c-228 -19 -406 -55 -600 -120 -473 -158 -894 -484 -1171
-907 -376 -574 -467 -1224 -267 -1917 247 -859 952 -1454 1863 -1575 158 -21
452 -21 610 0 691 92 1278 462 1618 1020 222 366 348 817 348 1246 0 782 -415
1511 -1097 1927 -260 159 -576 269 -894 311 -85 11 -343 21 -410 15z m286
-965 c277 -49 505 -219 611 -457 14 -31 35 -96 48 -145 l22 -87 51 -26 c91
-45 166 -134 193 -229 5 -16 52 -311 105 -655 71 -464 94 -641 91 -687 -9
-126 -93 -248 -213 -308 l-59 -30 -1000 0 -1000 0 -65 31 c-123 59 -208 179
-217 307 -3 46 19 218 86 657 50 327 96 620 102 650 23 113 99 213 200 264
l52 26 22 87 c28 107 60 183 113 260 120 176 300 292 522 338 80 16 256 19
336 4z"/>
<path d="M2425 3624 c-171 -33 -330 -152 -398 -295 -19 -41 -38 -86 -41 -101
l-6 -28 580 0 581 0 -7 23 c-39 127 -100 221 -186 286 -147 111 -335 152 -523
115z"/>
<path d="M1780 2932 c-19 -9 -42 -30 -51 -47 -18 -31 -199 -1191 -199 -1270 0
-57 29 -99 82 -119 39 -15 130 -16 968 -14 889 3 926 4 953 22 36 25 57 66 57
113 0 79 -182 1238 -199 1268 -9 17 -32 38 -51 47 -32 17 -91 18 -780 18 -689
0 -748 -1 -780 -18z"/>
</g>
</svg>
